<?xml version="1.0" standalone="no"?>
<!DOCTYPE svg PUBLIC "-//W3C//DTD SVG 20010904//EN"
 "http://www.w3.org/TR/2001/REC-SVG-20010904/DTD/svg10.dtd">
<svg version="1.0" xmlns="http://www.w3.org/2000/svg"
 width="323.000000pt" height="323.000000pt" viewBox="0 0 323.000000 323.000000"
 preserveAspectRatio="xMidYMid meet">
<metadata>
Created by potrace 1.11, written by Peter Selinger 2001-2013
</metadata>
<g transform="translate(0.000000,323.000000) scale(0.100000,-0.100000)"
fill="#000000" stroke="none">
<path d="M1405 3179 c-63 -9 -199 -54 -225 -73 -8 -7 -51 -30 -95 -51 -44 -22
-100 -53 -125 -69 -101 -67 -217 -198 -290 -329 -18 -32 -57 -83 -87 -113 -30
-29 -63 -73 -73 -97 -39 -89 -51 -387 -18 -464 6 -15 27 -44 45 -63 l33 -36 7
-137 c3 -75 4 -137 1 -137 -4 0 -20 24 -37 54 -44 80 -91 106 -91 53 0 -14 17
-37 45 -62 43 -38 46 -44 66 -140 11 -55 25 -118 29 -140 5 -22 9 -55 10 -72
0 -28 -4 -33 -23 -33 -13 0 -29 6 -37 13 -8 6 -6 1 5 -11 16 -19 27 -23 52
-19 31 5 32 4 49 -46 57 -173 168 -320 344 -453 178 -135 310 -179 515 -171
99 3 135 9 205 33 l85 30 -3 -100 c-10 -276 107 -435 378 -511 87 -25 218 -26
291 -2 70 23 163 103 213 185 19 31 58 115 86 187 28 71 60 135 71 143 10 7
24 22 30 33 9 19 9 19 -10 10 -48 -26 -132 -4 -170 45 -25 32 -24 42 12 129
34 82 43 123 12 55 -40 -88 -51 -104 -92 -125 -24 -13 -37 -27 -35 -37 4 -20
-42 -74 -79 -93 -45 -24 -107 -18 -177 15 -86 40 -127 39 -220 -7 -41 -20 -76
-41 -78 -48 -3 -6 2 -25 11 -41 8 -16 15 -35 15 -41 0 -24 21 -13 38 19 9 18
32 48 50 66 31 33 35 34 93 30 33 -2 64 -10 68 -16 9 -14 36 -22 107 -29 58
-6 96 10 157 64 l39 35 33 -36 c36 -40 71 -56 121 -56 19 0 34 -1 34 -3 0 -1
-19 -49 -43 -107 -101 -249 -214 -342 -409 -341 -89 0 -199 21 -252 48 -16 8
-71 56 -122 105 -108 105 -116 123 -135 295 -15 142 -8 189 35 239 55 66 49
78 -12 26 -120 -103 -169 -121 -348 -129 -130 -6 -232 6 -299 36 -64 29 -289
225 -354 308 -134 172 -191 301 -198 448 l-5 90 31 -37 c100 -117 299 -149
444 -70 62 34 131 109 153 170 10 26 20 49 23 52 4 3 7 16 9 30 1 13 6 27 10
30 15 9 23 42 13 54 -4 6 -11 32 -15 57 -6 42 -5 46 20 60 40 21 192 19 225
-3 24 -15 25 -21 21 -73 -13 -155 75 -323 200 -384 63 -30 163 -45 227 -33 44
8 51 7 52 -7 1 -9 5 8 10 38 5 30 7 56 4 59 -3 3 -5 -4 -5 -15 0 -13 -8 -23
-22 -27 -36 -9 -149 -7 -188 4 -55 15 -126 65 -159 110 -30 42 -66 142 -58
163 3 7 9 -4 15 -23 6 -19 11 -27 11 -17 2 34 60 127 80 127 3 0 4 -23 3 -50
-2 -28 -1 -62 2 -76 6 -22 10 -24 43 -18 19 4 81 9 137 13 l101 6 5 47 5 47
53 -40 c49 -38 52 -39 52 -17 0 13 -12 34 -25 47 -14 13 -25 27 -25 32 0 12
-125 73 -182 89 -41 11 -56 10 -113 -5 -36 -10 -65 -21 -65 -24 0 -4 -22 -20
-49 -36 -39 -23 -51 -37 -55 -60 -2 -16 -3 -1 -2 35 1 50 7 72 25 97 65 87
248 126 423 89 110 -24 153 -77 165 -210 l5 -49 -49 42 c-53 44 -62 49 -59 28
2 -19 104 -147 116 -147 5 0 17 -11 25 -24 14 -21 15 -33 5 -83 -6 -32 -14
-80 -16 -108 -3 -27 -12 -80 -19 -116 -8 -37 -17 -115 -20 -175 l-6 -109 24
29 c14 16 46 69 72 118 45 85 49 90 75 84 28 -5 61 17 46 31 -3 3 -6 1 -6 -5
0 -15 -27 -16 -35 -2 -8 12 9 96 30 152 8 20 19 67 26 105 10 59 17 73 51 106
25 24 46 36 55 32 13 -4 15 1 10 31 -3 20 -8 39 -11 41 -13 13 -73 -38 -102
-85 -24 -40 -33 -49 -38 -37 -16 42 7 234 30 248 8 4 25 28 40 53 22 38 28 63
35 161 10 130 -2 276 -25 321 -8 16 -37 54 -64 83 -27 30 -62 84 -80 121 -105
229 -263 377 -509 481 -187 79 -323 105 -448 86z m164 -939 c105 -12 121 -17
121 -39 0 -10 9 -26 19 -35 18 -16 24 -16 97 -1 119 24 204 8 316 -61 57 -35
78 -37 78 -8 0 21 21 17 62 -11 34 -23 36 -27 31 -67 -3 -24 -7 -45 -9 -46 -1
-2 -42 8 -91 22 -116 34 -232 49 -307 41 -98 -12 -186 -43 -236 -84 l-45 -37
-55 17 c-72 23 -132 23 -200 -1 l-54 -18 -35 30 c-77 68 -215 105 -346 93 -98
-9 -114 -12 -187 -35 -34 -11 -64 -20 -65 -20 -2 0 -3 22 -3 50 0 46 3 51 38
75 l37 25 3 -30 c4 -38 14 -38 63 1 84 66 195 89 307 64 81 -19 102 -12 102
31 0 19 7 24 53 33 108 21 191 24 306 11z m318 -226 c-3 -3 -12 -4 -19 -1 -8
3 -5 6 6 6 11 1 17 -2 13 -5z m-755 -53 c73 -28 123 -82 132 -143 4 -24 2 -55
-3 -69 -5 -13 -10 -19 -10 -12 -1 6 -4 19 -8 29 -4 12 -3 15 5 10 7 -4 12 -1
12 9 0 23 -58 73 -94 80 -17 4 -45 11 -61 17 -61 21 -236 -39 -295 -102 -14
-14 -22 -21 -17 -16 10 14 9 36 -2 36 -6 0 -30 -20 -54 -44 -50 -49 -66 -91
-44 -113 13 -13 18 -9 38 28 25 45 49 62 49 35 0 -24 8 -20 59 27 l46 42 5
-50 5 -50 130 -11 c157 -13 159 -11 152 81 l-6 60 34 -37 c19 -20 37 -49 41
-63 17 -67 -59 -190 -146 -239 -51 -29 -62 -31 -155 -31 -118 0 -158 16 -222
89 -95 108 -91 323 9 419 51 49 290 60 400 18z m726 -180 c-2 -20 -8 -26 -28
-26 -30 0 -40 33 -15 51 25 19 47 6 43 -25z m-853 -1 c0 -29 -34 -40 -54 -17
-18 23 -2 49 28 45 20 -2 26 -8 26 -28z m-275 -285 c13 -14 21 -25 18 -25 -2
0 -15 11 -28 25 -13 14 -21 25 -18 25 2 0 15 -11 28 -25z m1567 -87 c-3 -7 -5
-2 -5 12 0 14 2 19 5 13 2 -7 2 -19 0 -25z"/>
<path d="M555 1770 c3 -5 8 -10 11 -10 2 0 4 5 4 10 0 6 -5 10 -11 10 -5 0 -7
-4 -4 -10z"/>
<path d="M2705 1333 c-27 -42 -55 -88 -61 -102 -6 -14 -32 -49 -58 -77 -25
-29 -46 -57 -46 -64 0 -7 -25 -53 -56 -103 -44 -71 -58 -103 -63 -147 -4 -30
-11 -61 -15 -69 -5 -8 -3 -17 5 -22 23 -14 30 -10 23 15 -6 26 34 151 62 194
10 15 18 29 17 33 -1 3 26 45 59 95 106 155 203 325 186 324 -2 0 -25 -35 -53
-77z"/>
<path d="M1261 1339 c-1 -32 5 -54 19 -72 62 -79 301 -75 351 7 20 32 26 91
10 100 -5 4 -18 -11 -28 -31 -23 -47 -61 -62 -163 -62 -113 -1 -147 12 -170
62 l-19 42 0 -46z"/>
<path d="M2045 1315 c-4 -25 -5 -48 -2 -51 2 -3 8 16 12 41 3 26 4 49 2 52 -3
3 -9 -16 -12 -42z"/>
<path d="M1865 1220 c-7 -11 42 -37 51 -27 4 3 4 13 1 22 -7 17 -42 21 -52 5z"/>
<path d="M1020 1205 c0 -8 6 -15 13 -16 6 0 23 -23 37 -52 29 -58 106 -125
123 -108 6 6 31 12 57 13 36 1 39 2 13 5 -22 3 -33 10 -33 20 0 14 11 15 88 7
48 -5 121 -9 162 -10 127 -2 151 -4 146 -13 -3 -5 15 -11 40 -14 26 -2 50 -11
54 -18 6 -9 20 -4 58 20 49 31 92 84 107 130 6 21 5 23 -11 16 -85 -35 -130
-48 -237 -65 -152 -25 -202 -25 -352 0 -146 23 -228 54 -220 81 5 15 1 19 -19
19 -16 0 -26 -6 -26 -15z"/>
<path d="M2021 1164 c0 -11 3 -14 6 -6 3 7 2 16 -1 19 -3 4 -6 -2 -5 -13z"/>
<path d="M2285 1049 c-4 -6 -5 -12 -2 -15 2 -3 7 2 10 11 7 17 1 20 -8 4z"/>
<path d="M1378 1033 c46 -2 118 -2 160 0 42 1 5 3 -83 3 -88 0 -123 -2 -77 -3z"/>
<path d="M1355 959 c39 -9 181 -9 220 0 17 4 -33 8 -110 7 -77 0 -126 -3 -110
-7z"/>
<path d="M1926 883 c-6 -14 -5 -15 5 -6 7 7 10 15 7 18 -3 3 -9 -2 -12 -12z"/>
</g>
</svg>
